<svg xmlns="http://www.w3.org/2000/svg" width="2550" height="1280" viewBox="0 0 2550 1280">
  <defs>
    <style>
      .cls-1 {
        fill: #f8eb60;
        fill-rule: evenodd;
      }
    </style>
  </defs>
  <path id="grit42" class="cls-1" d="M1093.12,395.1c44.56,0,80.37-26.7,80.37-70.667,0-43.188-35.81-69.889-80.37-69.889-43.77,0-80.34,26.7-80.34,69.889C1012.78,368.4,1049.35,395.1,1093.12,395.1Zm1330.28,1.361L2034.34,171.79a21.186,21.186,0,0,0-21.2,0L1624.07,396.471a21.2,21.2,0,0,0-10.6,18.361V864.174a21.2,21.2,0,0,0,10.6,18.361l389.06,224.675a21.186,21.186,0,0,0,21.2,0L2423.4,882.535a21.2,21.2,0,0,0,10.6-18.361V414.83A21.2,21.2,0,0,0,2423.4,396.465ZM2004.63,726.584a5.45,5.45,0,0,1-5.45,5.45h-40.02v54.732l38.7,8.3a5.445,5.445,0,0,1,4.31,5.329V850.2a5.45,5.45,0,0,1-5.45,5.45H1798.74a5.45,5.45,0,0,1-5.45-5.45V800.442a5.446,5.446,0,0,1,4.36-5.342l41.1-8.334V732.034H1664.19a5.45,5.45,0,0,1-5.45-5.45V675.558a5.487,5.487,0,0,1,1.21-3.433l195.59-241.239a5.457,5.457,0,0,1,4.23-2.018h93.95a5.448,5.448,0,0,1,5.44,5.45V666.844h40.02a5.451,5.451,0,0,1,5.45,5.45v54.29Zm326.05,124.043a5.449,5.449,0,0,1-5.43,5.024H2038.17a5.45,5.45,0,0,1-5.45-5.45V791.34a5.45,5.45,0,0,1,1.66-3.915l94.27-91.291c45.83-44.6,74.55-78.225,74.55-119.78,0-39.719-22.61-59.275-68.44-59.275a302.728,302.728,0,0,0-81.58,11.843,5.457,5.457,0,0,1-7.02-5.219V464.66a5.443,5.443,0,0,1,2.83-4.78c31.35-17.213,80.72-34.468,135.27-34.468,95.32,0,147.86,49.506,147.86,131.385,0,67.832-48.27,120.4-125.26,176.007l-54.38,39.737v1.212h103.88l19.28-39.716a5.442,5.442,0,0,1,4.9-3.069h53.63a5.445,5.445,0,0,1,5.43,5.876ZM430.091,739.04H292.44c-22.282,0-29.44-11.166-29.44-21.542,0-7.176,3.184-16.749,9.548-23.926,18.3,3.99,37.4,5.584,58.88,5.584,112.991,0,186.988-51.056,186.988-143.589,0-22.332-7.164-37.494-18.3-54.243h57.291V426.779a5.45,5.45,0,0,0-5.989-5.423l-130.079,12.96c-24.666-8.776-54.9-13.556-89.909-13.556-110.6,0-186.989,51.049-186.989,143.583,0,49.462,26.256,86.153,65.25,107.689-34.214,22.337-61.27,55.842-61.27,90.142s18.3,57.436,55.7,68.6v3.989C156.378,847.525,115,873.853,115,920.919c0,56.633,66.044,97.321,201.311,97.321,173.46,0,245.067-74.193,245.067-162.736C561.378,770.95,503.3,739.04,430.091,739.04ZM331.428,492.548c28.645,0,50.92,12.766,50.92,68.6,0,50.259-22.275,67.008-50.92,67.008-27.85,0-49.331-16.749-49.331-69.4C282.1,508.506,302.782,492.548,331.428,492.548Zm-3.98,444.317c-57.29,0-77.976-16.749-77.976-39.884,0-19.936,11.137-31.9,27.85-39.081H377.575c36.6,0,50.132,7.176,50.132,30.312C427.707,914.533,401.445,936.865,327.448,936.865ZM1743.52,665.015v1.829h95.23V548.161h-2.46ZM1503.83,767.344a147.7,147.7,0,0,1-32.32,3.856c-34.99,0-51.71-11.142-51.71-48.538V517.4h80.47a5.448,5.448,0,0,0,5.44-5.449V434.455a5.448,5.448,0,0,0-5.44-5.45H1419.8V347.747a5.449,5.449,0,0,0-5.78-5.44l-121.94,7.514a5.449,5.449,0,0,0-5.11,5.439v74.622l-53.66,10.294a5.455,5.455,0,0,0-4.42,5.352V517.4h45.34V746.531c0,89.906,47.74,117.748,133.65,117.748,44.33,0,80.56-10.278,100.27-21.665a4.7,4.7,0,0,0,2.34-4.087V772.653A5.438,5.438,0,0,0,1503.83,767.344ZM923.5,425.167a103.271,103.271,0,0,0-16.958-1.376c-48.505,0-85.085,30.221-107.346,68.4H794.43V434.4a5.454,5.454,0,0,0-5.822-5.442L611.849,440.945a5.454,5.454,0,0,0-5.085,5.442v62.5h47.711V771.221l-41.27,10.973a5.453,5.453,0,0,0-4.052,5.271v62.726a5.454,5.454,0,0,0,5.453,5.455H854.171a5.454,5.454,0,0,0,5.453-5.455V787.722a5.454,5.454,0,0,0-4.359-5.344l-54.481-11.157V566.95c23.861-11.133,50.887-15.91,89.855-15.91,13.519,0,27.833,1.594,37.369,3.977V430.538A5.454,5.454,0,0,0,923.5,425.167ZM1209.04,782.188l-38.94-10.929v-336.7a5.448,5.448,0,0,0-5.8-5.439L979.681,441.136a5.45,5.45,0,0,0-5.1,5.438v62.461h49.275V771.259l-41.245,10.969a5.449,5.449,0,0,0-4.048,5.267v62.7a5.449,5.449,0,0,0,5.448,5.45H1207.57a5.45,5.45,0,0,0,5.45-5.45V787.436A5.444,5.444,0,0,0,1209.04,782.188Z"/>
</svg>
